<svg height="32" viewBox="0 0 16 16" width="32" xmlns="http://www.w3.org/2000/svg"><path d="m4.773438 1c-2.078125 0-3.773438 1.695313-3.773438 3.773438v5.457031c0 2.074219 1.695313 3.769531 3.773438 3.769531h5.457031c2.074219 0 3.769531-1.695312 3.769531-3.773437v-5.453125c0-2.078125-1.695312-3.773438-3.773437-3.773438zm0 1h5.453125c1.539062 0 2.773437 1.234375 2.773437 2.773438v5.453125c0 1.539062-1.234375 2.773437-2.769531 2.773437h-5.457031c-1.539063 0-2.773438-1.234375-2.773438-2.769531v-5.457031c0-1.539063 1.234375-2.773438 2.773438-2.773438zm6.726562 1c-.277344 0-.5.222656-.5.5s.222656.5.5.5.5-.222656.5-.5-.222656-.5-.5-.5zm-4 1c-1.925781 0-3.5 1.574219-3.5 3.5s1.574219 3.5 3.5 3.5 3.5-1.574219 3.5-3.5-1.574219-3.5-3.5-3.5zm0 1c1.386719 0 2.5 1.113281 2.5 2.5s-1.113281 2.5-2.5 2.5-2.5-1.113281-2.5-2.5 1.113281-2.5 2.5-2.5z"/></svg>