<svg height="32" viewBox="0 0 16 16" width="32" xmlns="http://www.w3.org/2000/svg"><path d="m2.757813 1c-.964844 0-1.757813.792969-1.757813 1.757813v9.488281c0 .960937.792969 1.753906 1.757813 1.753906h9.488281c.960937 0 1.753906-.792969 1.753906-1.753906v-9.488281c0-.964844-.792969-1.757813-1.753906-1.757813zm0 1h9.488281c.421875 0 .753906.332031.753906.757813v9.488281c0 .421875-.332031.753906-.753906.753906h-9.488281c-.425782 0-.757813-.332031-.757813-.753906v-9.488281c0-.425782.332031-.757813.757813-.757813zm1.242187 1c-.550781 0-1 .449219-1 1s.449219 1 1 1 1-.449219 1-1-.449219-1-1-1zm-1 3v6h2v-6zm3 0v6h2v-2.679687c0-.832032.078125-1.578125 1.078125-1.578125.984375 0 .921875.894531.921875 1.632812v2.625h2v-2.960937c0-1.71875-.359375-3.039063-2.308594-3.039063-.9375 0-1.410156.375-1.667968.875h-.023438v-.875z"/></svg>